<?xml version="1.0" standalone="no"?>
<!--
  - COPYRIGHT (C) 2022 Art AUTHORS(fxzcloud@gmail.com). ALL RIGHTS RESERVED.
  -
  - Licensed under the Apache License, Version 2.0 (the "License");
  - you may not use this file except in compliance with the License.
  - You may obtain a copy of the License at
  -
  -     http://www.apache.org/licenses/LICENSE-2.0
  -
  - Unless required by applicable law or agreed to in writing, software
  - distributed under the License is distributed on an "AS IS" BASIS,
  - WITHOUT WARRANTIES OR CONDITIONS OF ANY KIND, either express or implied.
  - See the License for the specific language governing permissions and
  - limitations under the License.
  -->

<svg data-noselect=""
     viewBox="140 165.17804253175998 396.52809143065997 297"
     width="396.52809143065997"
     height="297"
     ref="svg_canvas"
     preserveAspectRatio="none"
     version="1.1" xmlns="http://www.w3.org/2000/svg"
     style="background: rgba(0,0,0,0);">
  <defs></defs>
  <g id="shape_AjwXCJgVSQ"
     transform="translate(265.73595428467,250.03217148930352) rotate(0,80,49.967828510696) scale(1,1)" filter=""
     style="opacity: 1;">
    <g>

      <rect fill="rgba(0,0,0,0)"  width="180" height="119.935657021393" x="-10" y="-10"></rect>
      <svg version="1.1" id="图层_1" xmlns="http://www.w3.org/2000/svg" xmlns:xlink="http://www.w3.org/1999/xlink"
           x="0px" y="0px" width="160" height="99.935657021393"
           viewBox="10.189589500427246 43.904483795166016 179.6204071044922 112.19052124023438"
           enable-background="new 0 0 200 200" xml:space="preserve" preserveAspectRatio="none" class="style-removed"
           data-parent="shape_AjwXCJgVSQ">
<g>
	<path fill="#246fdd" d="M106.321,89.494c0,0,21.712-23.689,49.111-19.623c20.564,3.052,29.926,14.137,34.378,20.14H176.37
		c0,0-9.943-9.084-23.78-10.899C140.013,77.462,129.843,78.121,106.321,89.494z" stroke-width="0"></path>
  <path fill="#246fdd" d="M147.161,71.716c0,0-5.801-22.574-33.028-27.054S61.92,55.92,43.31,82.687l22.517-4.021
		c0,0,19.354-29.195,47.101-24.24c16.083,2.872,24.699,10.109,27.916,18.496L147.161,71.716z" stroke-width="0"></path>
  <path fill="#24dd7f" d="M62.38,83.893c0,0-46.698,7.782-51.696,38.255c-4.136,25.216,18.611,33.947,33.43,33.947
		c18.036,0,112.698,0,112.698,0l1.206-5.687c0,0-71.397,0.324-101.38,0c-15.968-0.172-28.147-4.996-28.147-22.574
		c0-14.992,12.867-26.502,29.065-32.034L62.38,83.893z" stroke-width="0"></path>
</g>
</svg>
    </g>
  </g>
  <g id="shape_W7YDZ35Q8m" transform="translate(248.26404571533004,113.23491528320352) rotate(0,172,203.822) scale(1,1)"
     filter="" style="opacity: 1;">
    <g>
      <svg xmlns="http://www.w3.org/2000/svg" version="1.1" xmlns:xlink="http://www.w3.org/1999/xlink" width="460"
           height="407.644" viewBox="0 0 460 407.644">
        <g data-width="227.07" transform="translate(58, 0)">
          <path
            d="M11.66-22.85L34.74-22.85L34.74-15.95L11.66-15.95L11.66 0L3.48 0L3.48-20.18Q3.54-28.88 5.10-31.61L5.10-31.61Q7.08-35.44 10.82-37.06Q14.56-38.69 21.34-38.69L21.34-38.69L34.74-38.69L34.74-31.78L22.39-31.78Q16.65-31.67 15.02-30.86L15.02-30.86Q11.77-29.52 11.66-24.94L11.66-24.94L11.66-22.85Z"
            transform="translate(0 223.822) skewX(-14)" fill="#246fdd" stroke="#246fdd" stroke-width="0.097"
            data-glyph-w="36.888" data-glyph-h="58" data-glyph-ascender="49.822" data-glyph-descender="-8.178"></path>
          <path
            d="M21.52-6.90L33.35-6.90L33.35 0L19.84 0Q16.01 0 13.98-0.41L13.98-0.41Q6.84-1.80 3.83-8.35L3.83-8.35Q1.86-12.76 1.86-19.26L1.86-19.26Q1.86-27.03 4.87-31.90L4.87-31.90Q7.08-35.44 10.76-37.06Q14.44-38.69 20.24-38.69L20.24-38.69L33.35-38.69L33.35-31.78L21.17-31.78Q15.66-31.78 13.11-28.83L13.11-28.83Q10.96-26.39 10.96-20.01L10.96-20.01Q10.96-11.43 14.27-8.76L14.27-8.76Q16.59-6.90 21.52-6.90L21.52-6.90Z"
            transform="translate(36.888 223.822) skewX(-14)" fill="#246fdd" stroke="#246fdd" stroke-width="0.097"
            data-glyph-w="35.148" data-glyph-h="58" data-glyph-ascender="49.822" data-glyph-descender="-8.178"></path>
          <path
            d="M3.48-16.94L3.48-38.69L11.66-38.69L11.66-16.94Q11.83-12.82 12.01-11.48L12.01-11.48Q12.41-8.82 14.56-7.86Q16.70-6.90 22.10-6.90L22.10-6.90L29.99-6.90L29.99 0L21.23 0Q15.02 0 12.24-0.70L12.24-0.70Q5.86-2.55 4.12-8.82L4.12-8.82Q3.48-11.25 3.48-16.94L3.48-16.94Z"
            transform="translate(72.036 223.822) skewX(-14)" fill="#246fdd" stroke="#246fdd" stroke-width="0.097"
            data-glyph-w="30.856" data-glyph-h="58" data-glyph-ascender="49.822" data-glyph-descender="-8.178"></path>
          <path
            d="M20.94-38.92L20.94-38.92Q26.74-38.92 31.15-36.95L31.15-36.95Q36.31-34.57 38.40-29L38.40-29Q40.02-24.65 40.02-18.79L40.02-18.79Q40.02-12.88 38.05-8.53L38.05-8.53Q35.55-3.36 30.39-1.28L30.39-1.28Q26.56 0.23 21.58 0.23L21.58 0.23Q15.02 0.23 10.21-2.20L10.21-2.20Q6.15-4.23 4.00-8.58Q1.86-12.93 1.86-19.14L1.86-19.14Q1.86-30.22 7.37-34.92L7.37-34.92Q12.01-38.86 20.94-38.92ZM21.00-32.42L21.00-32.42Q15.31-32.42 12.88-28.71L12.88-28.71Q10.90-25.81 10.90-19.37L10.90-19.37Q10.90-12.59 13.34-9.40L13.34-9.40Q15.78-6.26 21.05-6.26L21.05-6.26Q26.16-6.26 28.57-9.45Q30.97-12.64 30.97-19.31L30.97-19.31Q30.97-25.40 29-28.59L29-28.59Q26.74-32.36 21.00-32.42Z"
            transform="translate(102.892 223.822) skewX(-14)" fill="#246fdd" stroke="#246fdd" stroke-width="0.097"
            data-glyph-w="41.876" data-glyph-h="58" data-glyph-ascender="49.822" data-glyph-descender="-8.178"></path>
          <path
            d="M3.48-38.69L11.66-38.69L11.66-15.49Q11.66-12.70 12.12-11.17Q12.59-9.63 13.69-8.53L13.69-8.53Q16.12-6.15 20.47-6.15L20.47-6.15Q23.26-6.15 25.32-7.11Q27.38-8.06 28.19-9.69L28.19-9.69Q29-11.31 29-15.49L29-15.49L29-38.69L37.24-38.69L37.24-15.89Q37.24-11.37 36.28-8.44Q35.32-5.51 33.35-3.71L33.35-3.71Q28.77 0.29 20.36 0.29L20.36 0.29Q11.37 0.29 7.25-3.65L7.25-3.65Q5.10-5.68 4.29-8.21Q3.48-10.73 3.48-15.31L3.48-15.31L3.48-38.69Z"
            transform="translate(144.768 223.822) skewX(-14)" fill="#246fdd" stroke="#246fdd" stroke-width="0.097"
            data-glyph-w="40.774" data-glyph-h="58" data-glyph-ascender="49.822" data-glyph-descender="-8.178"></path>
          <path
            d="M3.94 0L3.94-38.69L20.36-38.69Q26.51-38.69 29.87-37.47L29.87-37.47Q36.08-35.21 38.16-29.17L38.16-29.17Q39.73-24.53 39.73-19.26L39.73-19.26Q39.73-14.04 38.22-9.40L38.22-9.40Q36.71-4.64 33.23-2.38L33.23-2.38Q31.03-0.99 28.39-0.49Q25.75 0 20.36 0L20.36 0L3.94 0ZM20.36-31.78L12.18-31.78L12.18-6.90L20.36-6.90Q25.75-6.90 27.84-9.28L27.84-9.28Q29.12-10.79 29.90-13.51Q30.68-16.24 30.68-19.31L30.68-19.31Q30.68-22.74 29.75-25.58Q28.83-28.42 27.32-29.81L27.32-29.81Q25.11-31.78 20.36-31.78L20.36-31.78Z"
            transform="translate(185.542 223.822) skewX(-14)" fill="#246fdd" stroke="#246fdd" stroke-width="0.097"
            data-glyph-w="41.528" data-glyph-h="58" data-glyph-ascender="49.822" data-glyph-descender="-8.178"></path>
        </g>
      </svg>
    </g>
  </g>
</svg>